<svg width="512" height="512" viewBox="0 0 512 512" fill="none" xmlns="http://www.w3.org/2000/svg">
  <defs>
    <linearGradient id="paper" x1="103" y1="78" x2="366" y2="430" gradientUnits="userSpaceOnUse"><stop stop-color="#FFFFFF"/><stop offset="0.52" stop-color="#FFF1F0"/><stop offset="1" stop-color="#E7C8CB"/></linearGradient>
    <linearGradient id="fold" x1="307" y1="76" x2="375" y2="151" gradientUnits="userSpaceOnUse"><stop stop-color="#FFE7E4"/><stop offset="1" stop-color="#DCA7AA"/></linearGradient>
    <linearGradient id="paperEdge" x1="91" y1="350" x2="151" y2="433" gradientUnits="userSpaceOnUse"><stop stop-color="#FFD3CE"/><stop offset="1" stop-color="#FF6F61"/></linearGradient>
    <linearGradient id="screen" x1="130" y1="176" x2="338" y2="343" gradientUnits="userSpaceOnUse"><stop stop-color="#FFFFFF"/><stop offset="1" stop-color="#F5DADC"/></linearGradient>
    <linearGradient id="pulse" x1="236" y1="364" x2="451" y2="180" gradientUnits="userSpaceOnUse"><stop stop-color="#E05548"/><stop offset="0.48" stop-color="#FF6F61"/><stop offset="1" stop-color="#FFA396"/></linearGradient>
    <linearGradient id="pulseShine" x1="262" y1="329" x2="431" y2="211" gradientUnits="userSpaceOnUse"><stop stop-color="#FFFFFF" stop-opacity="0.86"/><stop offset="0.62" stop-color="#FFE9E6" stop-opacity="0.28"/><stop offset="1" stop-color="#FFFFFF" stop-opacity="0"/></linearGradient>
    <filter id="shadow" x="42" y="37" width="438" height="446" filterUnits="userSpaceOnUse" color-interpolation-filters="sRGB"><feDropShadow dx="0" dy="17" stdDeviation="18" flood-color="#40242A" flood-opacity="0.24"/></filter>
    <filter id="coralGlow" x="183" y="130" width="303" height="288" filterUnits="userSpaceOnUse" color-interpolation-filters="sRGB"><feDropShadow dx="0" dy="12" stdDeviation="13" flood-color="#E05548" flood-opacity="0.34"/></filter>
  </defs>
  <g filter="url(#shadow)">
    <path d="M92 113C92 92.013 109.013 75 130 75H306L374 143V396C374 417.539 356.539 435 335 435H130C109.013 435 92 417.987 92 397V113Z" fill="url(#paper)"/>
    <path d="M306 75L374 143H335C318.984 143 306 130.016 306 114V75Z" fill="url(#fold)"/><path d="M306 75L374 143" stroke="#FFFFFF" stroke-opacity="0.72" stroke-width="3"/>
    <path d="M92 351C121 366 133 392 112 429C127 424 139 409 144 390C149 372 140 355 126 343L92 351Z" fill="url(#paperEdge)"/><path d="M92 351C121 366 133 392 112 429" stroke="#FFF5F3" stroke-width="3" stroke-linecap="round" opacity="0.8"/>
    <rect x="128" y="172" width="210" height="146" rx="17" fill="url(#screen)" stroke="#C99CA3" stroke-width="7"/><path d="M233 318V348M196 349H270" stroke="#B88D94" stroke-width="8" stroke-linecap="round"/><circle cx="151" cy="194" r="5" fill="#FF6F61"/><path d="M169 194H238" stroke="#D6AEB3" stroke-width="7" stroke-linecap="round"/>
  </g>
  <g filter="url(#coralGlow)">
    <path d="M205 297H257L275 245L309 353L334 278L350 301H430" stroke="#B7443B" stroke-width="25" stroke-linecap="round" stroke-linejoin="round" opacity="0.45"/>
    <path d="M205 287H257L275 235L309 343L334 268L350 291H430" stroke="url(#pulse)" stroke-width="25" stroke-linecap="round" stroke-linejoin="round"/><path d="M211 280H252L269 232" stroke="url(#pulseShine)" stroke-width="7" stroke-linecap="round" opacity="0.88"/><circle cx="430" cy="291" r="14" fill="#FFA396"/><circle cx="430" cy="291" r="6" fill="#FFF4F2" fill-opacity="0.88"/>
  </g>
</svg>
